<svg width="23" height="23" viewBox="0 0 23 23" fill="none" xmlns="http://www.w3.org/2000/svg">
<rect width="23" height="23" fill="white"/>
<path fill-rule="evenodd" clip-rule="evenodd" d="M20.9842 5.68423C21.2718 5.39667 21.4333 5.00667 21.4333 4.6V3.06667C21.4333 2.66 21.2718 2.26999 20.9842 1.98244C20.6967 1.69488 20.3067 1.53333 19.9 1.53333H14.5333C14.5333 1.12667 14.3718 0.736659 14.0842 0.449103C13.7967 0.161547 13.4067 0 13 0H9.93333C9.52667 0 9.13666 0.161547 8.8491 0.449103C8.56155 0.736659 8.4 1.12667 8.4 1.53333H3.03333C2.62667 1.53333 2.23666 1.69488 1.9491 1.98244C1.66155 2.26999 1.5 2.66 1.5 3.06667V4.6C1.5 5.00667 1.66155 5.39667 1.9491 5.68423C2.23666 5.97179 2.62667 6.13333 3.03333 6.13333H3.8V19.9333C3.8 20.7467 4.12309 21.5267 4.69821 22.1018C5.27332 22.6769 6.05334 23 6.86667 23H16.0667C16.88 23 17.66 22.6769 18.2351 22.1018C18.8102 21.5267 19.1333 20.7467 19.1333 19.9333V6.13333H19.9C20.3067 6.13333 20.6967 5.97179 20.9842 5.68423ZM5.33333 6.2238L5.51427 6.13333H17.4191L17.6 6.2238V19.9333C17.6 20.34 17.4385 20.73 17.1509 21.0176C16.8633 21.3051 16.4733 21.4667 16.0667 21.4667H6.86667C6.46 21.4667 6.06999 21.3051 5.78244 21.0176C5.49488 20.73 5.33333 20.34 5.33333 19.9333V6.2238ZM3.03333 3.06667V4.6H19.9V3.06667H3.03333ZM8.30878 8.65766C8.165 8.51388 7.97 8.43311 7.76667 8.43311C7.56333 8.43311 7.36833 8.51388 7.22455 8.65766C7.08077 8.80143 7 8.99644 7 9.19977V18.3998C7 18.6031 7.08077 18.7981 7.22455 18.9419C7.36833 19.0857 7.56333 19.1664 7.76667 19.1664C7.97 19.1664 8.165 19.0857 8.30878 18.9419C8.45256 18.7981 8.53333 18.6031 8.53333 18.3998V9.19977C8.53333 8.99644 8.45256 8.80143 8.30878 8.65766ZM12.1421 8.65766C11.9983 8.51388 11.8033 8.43311 11.6 8.43311C11.3967 8.43311 11.2017 8.51388 11.0579 8.65766C10.9141 8.80143 10.8333 8.99644 10.8333 9.19977V18.3998C10.8333 18.6031 10.9141 18.7981 11.0579 18.9419C11.2017 19.0857 11.3967 19.1664 11.6 19.1664C11.8033 19.1664 11.9983 19.0857 12.1421 18.9419C12.2859 18.7981 12.3667 18.6031 12.3667 18.3998V9.19977C12.3667 8.99644 12.2859 8.80143 12.1421 8.65766ZM15.9754 8.65766C16.1192 8.80143 16.2 8.99644 16.2 9.19977V18.3998C16.2 18.6031 16.1192 18.7981 15.9754 18.9419C15.8317 19.0857 15.6367 19.1664 15.4333 19.1664C15.23 19.1664 15.035 19.0857 14.8912 18.9419C14.7474 18.7981 14.6667 18.6031 14.6667 18.3998V9.19977C14.6667 8.99644 14.7474 8.80143 14.8912 8.65766C15.035 8.51388 15.23 8.43311 15.4333 8.43311C15.6367 8.43311 15.8317 8.51388 15.9754 8.65766Z" fill="#A0A0A0"/>
</svg>
