<svg width="18" height="18" viewBox="0 0 18 18" fill="none" xmlns="http://www.w3.org/2000/svg">
<circle cx="9" cy="9" r="9" fill="#3F3F3F"/>
<path d="M7.95238 11.6042V11.5354C7.96032 10.805 8.03968 10.2237 8.19048 9.79159C8.34127 9.35947 8.55556 9.00956 8.83333 8.74187C9.11111 8.47419 9.44444 8.22753 9.83333 8.00191C10.0675 7.86424 10.2778 7.70172 10.4643 7.51434C10.6508 7.32314 10.7976 7.10325 10.9048 6.85468C11.0159 6.60612 11.0714 6.33078 11.0714 6.02868C11.0714 5.65392 10.9802 5.32887 10.7976 5.05354C10.6151 4.7782 10.371 4.56597 10.0655 4.41683C9.75992 4.26769 9.42063 4.19312 9.04762 4.19312C8.72222 4.19312 8.40873 4.25813 8.10714 4.38815C7.80556 4.51816 7.55357 4.72275 7.35119 5.00191C7.14881 5.28107 7.03175 5.64627 7 6.09751H5.5C5.53175 5.44742 5.70635 4.89101 6.02381 4.4283C6.34524 3.96558 6.76786 3.61185 7.29167 3.36711C7.81944 3.12237 8.40476 3 9.04762 3C9.74603 3 10.3532 3.13384 10.869 3.40153C11.3889 3.66922 11.7897 4.03633 12.0714 4.50287C12.3571 4.96941 12.5 5.50096 12.5 6.09751C12.5 6.51816 12.4325 6.89866 12.2976 7.23901C12.1667 7.57935 11.9762 7.88337 11.7262 8.15105C11.4802 8.41874 11.1825 8.65583 10.8333 8.86233C10.4841 9.07266 10.2044 9.29446 9.99405 9.52773C9.78373 9.75717 9.63095 10.0306 9.53571 10.348C9.44048 10.6654 9.38889 11.0612 9.38095 11.5354V11.6042H7.95238ZM8.71429 15C8.42063 15 8.16865 14.8987 7.95833 14.696C7.74802 14.4933 7.64286 14.2505 7.64286 13.9675C7.64286 13.6845 7.74802 13.4417 7.95833 13.239C8.16865 13.0363 8.42063 12.935 8.71429 12.935C9.00794 12.935 9.25992 13.0363 9.47024 13.239C9.68056 13.4417 9.78571 13.6845 9.78571 13.9675C9.78571 14.1549 9.73611 14.327 9.6369 14.4837C9.54167 14.6405 9.4127 14.7667 9.25 14.8623C9.09127 14.9541 8.9127 15 8.71429 15Z" fill="white"/>
</svg>
