<svg width="30" height="30" viewBox="0 0 30 30" fill="none" xmlns="http://www.w3.org/2000/svg">
<path d="M2.25 15C2.25 7.55506 7.55506 2.25 15 2.25C22.4449 2.25 27.75 7.55506 27.75 15C27.75 19.7353 25.6085 23.5589 22.2154 25.7376C21.6926 26.0733 21.5409 26.7692 21.8766 27.2921C22.2123 27.8149 22.9083 27.9666 23.4311 27.6309C27.5113 25.011 30 20.4494 30 15C30 6.31242 23.6876 0 15 0C6.31242 0 0 6.31242 0 15C0 23.6876 6.31242 30 15 30C16.6569 30 18.2343 29.7703 19.7027 29.3329C20.2982 29.1555 20.6371 28.529 20.4598 27.9335C20.2824 27.3381 19.6559 26.9991 19.0604 27.1765C17.8088 27.5493 16.4483 27.75 15 27.75C7.55506 27.75 2.25 22.4449 2.25 15Z" fill="black"/>
<path d="M10.5 13.875C9.87868 13.875 9.375 14.3787 9.375 15C9.375 15.6213 9.87868 16.125 10.5 16.125H19.5C20.1213 16.125 20.625 15.6213 20.625 15C20.625 14.3787 20.1213 13.875 19.5 13.875H10.5Z" fill="black"/>
</svg>
