<svg width="28" height="28" viewBox="0 0 28 28" fill="none" xmlns="http://www.w3.org/2000/svg">
<path fill-rule="evenodd" clip-rule="evenodd" d="M2.24 24.9961C2.24 25.2021 2.40715 25.3692 2.61333 25.3692H9.33333C9.95189 25.3692 10.4533 25.8703 10.4533 26.4884C10.4533 27.1065 9.95189 27.6076 9.33333 27.6076H2.61333C1.17003 27.6076 0 26.4384 0 24.9961V2.61153C0 1.16922 1.17003 0 2.61333 0H25.0133C26.4566 0 27.6267 1.16922 27.6267 2.61153V10.8192C27.6267 11.4373 27.1252 11.9384 26.5067 11.9384C25.8881 11.9384 25.3867 11.4373 25.3867 10.8192V2.61153C25.3867 2.40549 25.2195 2.23846 25.0133 2.23846H2.61333C2.40715 2.23846 2.24 2.40549 2.24 2.61153V24.9961ZM19.04 22.3846C18.4214 22.3846 17.92 21.8835 17.92 21.2653V20.1461H16.8C16.1814 20.1461 15.68 19.645 15.68 19.0269C15.68 18.4087 16.1814 17.9076 16.8 17.9076H17.92V16.7884C17.92 16.1703 18.4214 15.6692 19.04 15.6692C19.6586 15.6692 20.16 16.1703 20.16 16.7884V17.9076H21.28C21.8986 17.9076 22.4 18.4087 22.4 19.0269C22.4 19.645 21.8986 20.1461 21.28 20.1461H20.16V21.2653C20.16 21.8835 19.6586 22.3846 19.04 22.3846ZM19.04 12.3308C15.3286 12.3308 12.32 15.3374 12.32 19.0462C12.32 22.755 15.3286 25.7615 19.04 25.7615C19.9977 25.7615 20.9058 25.5619 21.7274 25.203C22.2942 24.9554 22.9545 25.2139 23.2022 25.7803C23.45 26.3467 23.1914 27.0065 22.6246 27.2541C21.5255 27.7341 20.3124 28 19.04 28C14.0915 28 10.08 23.9912 10.08 19.0462C10.08 14.1011 14.0915 10.0924 19.04 10.0924C23.9885 10.0924 28 14.1011 28 19.0462C28 20.5791 27.6135 22.025 26.9318 23.2888C26.6383 23.8329 25.9589 24.0362 25.4144 23.7429C24.87 23.4496 24.6665 22.7707 24.96 22.2266C25.4701 21.2811 25.76 20.1992 25.76 19.0462C25.76 15.3374 22.7514 12.3308 19.04 12.3308ZM8.58667 5.22306C7.96811 5.22306 7.46667 5.72416 7.46667 6.34229C7.46667 6.96042 7.96811 7.46152 8.58667 7.46152H19.7867C20.4052 7.46152 20.9067 6.96042 20.9067 6.34229C20.9067 5.72416 20.4052 5.22306 19.7867 5.22306H8.58667Z" fill="black"/>
</svg>
